<svg width="32" height="32" viewBox="0 0 32 32" fill="none" xmlns="http://www.w3.org/2000/svg">
<path fill-rule="evenodd" clip-rule="evenodd" d="M6.53617 6.53617C6.53617 2.92635 3.60982 0 0 0V24.5106H6.53617C6.53617 28.6469 9.88926 32 14.0255 32H15.9319C19.617 32 22.6043 29.0127 22.6043 25.3277V24.5106H24.5106C28.6469 24.5106 32 21.1575 32 17.0213H22.6043V12.2553H13.0723C9.46252 12.2553 6.53617 15.1817 6.53617 18.7915V6.53617ZM6.53617 18.7915H15.9319V24.5106H6.53617V18.7915Z" fill="url(#paint0_linear_42_2)"/>
<path d="M6.53617 6.53617H15.9319C15.9319 2.92635 13.0056 0 9.39574 0H6.53617V6.53617Z" fill="url(#paint1_linear_42_2)"/>
<path d="M32 6.53617H22.6043V0H25.4638C29.0737 0 32 2.92635 32 6.53617Z" fill="url(#paint2_linear_42_2)"/>
<path d="M19.2681 3.26809C17.4256 3.26809 15.9319 4.76174 15.9319 6.60426C15.9319 8.44677 17.4256 9.94043 19.2681 9.94043H22.6043V6.60426C22.6043 4.76174 21.1106 3.26809 19.2681 3.26809Z" fill="url(#paint3_linear_42_2)"/>
<defs>
<linearGradient id="paint0_linear_42_2" x1="19.25" y1="2.98256e-07" x2="0" y2="32" gradientUnits="userSpaceOnUse">
<stop stop-color="#1855F0"/>
<stop offset="1" stop-color="#D218F0"/>
</linearGradient>
<linearGradient id="paint1_linear_42_2" x1="19.25" y1="2.98256e-07" x2="0" y2="32" gradientUnits="userSpaceOnUse">
<stop stop-color="#1855F0"/>
<stop offset="1" stop-color="#D218F0"/>
</linearGradient>
<linearGradient id="paint2_linear_42_2" x1="19.25" y1="2.98256e-07" x2="0" y2="32" gradientUnits="userSpaceOnUse">
<stop stop-color="#1855F0"/>
<stop offset="1" stop-color="#D218F0"/>
</linearGradient>
<linearGradient id="paint3_linear_42_2" x1="19.25" y1="2.98256e-07" x2="0" y2="32" gradientUnits="userSpaceOnUse">
<stop stop-color="#1855F0"/>
<stop offset="1" stop-color="#D218F0"/>
</linearGradient>
</defs>
</svg>
